<?xml version="1.0" encoding="UTF-8" standalone="no"?>
<!-- Created with Inkscape (http://www.inkscape.org/) -->

<svg
   xmlns:dc="http://purl.org/dc/elements/1.1/"
   xmlns:cc="http://creativecommons.org/ns#"
   xmlns:rdf="http://www.w3.org/1999/02/22-rdf-syntax-ns#"
   xmlns:svg="http://www.w3.org/2000/svg"
   xmlns="http://www.w3.org/2000/svg"
   xmlns:sodipodi="http://sodipodi.sourceforge.net/DTD/sodipodi-0.dtd"
   xmlns:inkscape="http://www.inkscape.org/namespaces/inkscape"
   width="184.01787mm"
   height="48.37785mm"
   viewBox="0 0 652.03183 171.41757"
   id="svg2"
   version="1.1"
   inkscape:version="0.91 r13725"
   sodipodi:docname="hotdoc.svg">
  <defs
     id="defs4" />
  <sodipodi:namedview
     id="base"
     pagecolor="#ffffff"
     bordercolor="#666666"
     borderopacity="1.0"
     inkscape:pageopacity="0.0"
     inkscape:pageshadow="2"
     inkscape:zoom="0.83629941"
     inkscape:cx="46.013792"
     inkscape:cy="39.505395"
     inkscape:document-units="px"
     inkscape:current-layer="layer1"
     showgrid="false"
     inkscape:window-width="1920"
     inkscape:window-height="1016"
     inkscape:window-x="0"
     inkscape:window-y="27"
     inkscape:window-maximized="1"
     inkscape:snap-page="false"
     fit-margin-top="0"
     fit-margin-left="0"
     fit-margin-right="0"
     fit-margin-bottom="0" />
  <metadata
     id="metadata7">
    <rdf:RDF>
      <cc:Work
         rdf:about="">
        <dc:format>image/svg+xml</dc:format>
        <dc:type
           rdf:resource="http://purl.org/dc/dcmitype/StillImage" />
        <dc:title></dc:title>
      </cc:Work>
    </rdf:RDF>
  </metadata>
  <g
     inkscape:label="Layer 1"
     inkscape:groupmode="layer"
     id="layer1"
     transform="translate(-2.1721021,-312.61074)">
    <path
       style="font-style:normal;font-variant:normal;font-weight:bold;font-stretch:normal;font-size:22.5px;line-height:125%;font-family:monospace;-inkscape-font-specification:'monospace, Bold';text-align:start;letter-spacing:0px;word-spacing:0px;writing-mode:lr-tb;text-anchor:start;fill:#ff0000;fill-opacity:1;stroke:none;stroke-width:1px;stroke-linecap:butt;stroke-linejoin:miter;stroke-opacity:1"
       d="m 17.225503,312.61074 0,3.00398 -3.025303,-1.5897 -0.695397,1.23108 3.03505,1.51053 -3.03505,1.51984 0.695397,1.23108 3.025303,-1.60677 0,3.00397 1.571142,0 0,-3.00397 3.035053,1.60677 0.693771,-1.23108 -3.015553,-1.51984 3.015553,-1.51053 -0.693771,-1.23108 -3.035053,1.5897 0,-3.00398 -1.571142,0 z m 11.259587,0 0,3.00398 -3.025303,-1.5897 -0.695398,1.23108 3.035051,1.51053 -3.035051,1.51984 0.695398,1.23108 3.025303,-1.60677 0,3.00397 1.571141,0 0,-3.00397 3.035053,1.60677 0.693771,-1.23108 -3.015553,-1.51984 3.015553,-1.51053 -0.693771,-1.23108 -3.035053,1.5897 0,-3.00398 -1.571141,0 z m -19.1282994,0.23442 -7.1846885,14.69697 2.0195766,0 7.1846883,-14.69697 -2.0195764,0 z m 70.6006974,15.59739 0,1.65801 11.259577,0 0.008,0 11.259595,0 0,-1.65801 -11.259595,0 -0.008,0 -11.259577,0 z m 45.038332,0 0,1.65801 11.2596,0 0.008,0 11.25959,0 0,-1.65801 -11.25959,0 -0.008,0 -11.2596,0 z m 56.29794,0 0,1.65801 11.25958,0 0.008,0 11.25146,0 0.008,0 11.25146,0 0.008,0 11.25958,0 0,-1.65801 -11.25958,0 -0.008,0 -11.25146,0 -0.008,0 -11.25146,0 -0.008,0 -11.25958,0 z m 101.33627,0 0,1.65801 11.2596,0 0.008,0 11.25146,0 0.008,0 11.25147,0 0.008,0 11.25147,0 0.008,0 11.25147,0 0.008,0 11.25958,0 0,-1.65801 -11.25958,0 -0.008,0 -11.25147,0 -0.008,0 -11.25147,0 -0.008,0 -11.25147,0 -0.008,0 -11.25146,0 -0.008,0 -11.2596,0 z m 101.33628,0 0,1.65801 11.25958,0 0.008,0 11.25147,0 0.008,0 11.25146,0 0.008,0 11.2596,0 0,-1.65801 -11.2596,0 -0.008,0 -11.25146,0 -0.008,0 -11.25147,0 -0.008,0 -11.25958,0 z m 101.33628,0 0,1.65801 11.25959,0 0.008,0 11.25146,0 0.008,0 11.25146,0 0.008,0 11.25958,0 0,-1.65801 -11.25958,0 -0.008,0 -11.25146,0 -0.008,0 -11.25146,0 -0.008,0 -11.25959,0 z m 101.33627,0 0,1.65801 11.25958,0 0.008,0 11.25146,0 0.008,0 11.25147,0 0.008,0 11.25147,0 0.008,0 11.25147,0 0.008,0 11.25959,0 0,-1.65801 -11.25959,0 -0.008,0 -11.25147,0 -0.008,0 -11.25147,0 -0.008,0 -11.25147,0 -0.008,0 -11.25146,0 -0.008,0 -11.25958,0 z m -569.413357,6.52337 0,3.00398 -3.025303,-1.58971 -0.695397,1.23108 3.03505,1.51053 -3.03505,1.51984 0.695397,1.23109 3.025303,-1.60677 0,3.00397 1.571142,0 0,-3.00397 3.035053,1.60677 0.693771,-1.23109 -3.015553,-1.51984 3.015553,-1.51053 -0.693771,-1.23108 -3.035053,1.58971 0,-3.00398 -1.571142,0 z m 59.688807,0.23441 -7.184691,14.69697 2.019578,0 7.18469,-14.69697 -2.019577,0 z m 22.519173,0 -7.184697,14.69697 2.019577,0 7.184687,-14.69697 -2.019567,0 z m 22.519157,0 -7.18468,14.69697 2.01959,0 7.18468,-14.69697 -2.01959,0 z m 22.51918,0 -7.18469,14.69697 2.01958,0 7.1847,-14.69697 -2.01959,0 z m 33.77876,0 -7.18469,14.69697 2.01958,0 7.18469,-14.69697 -2.01958,0 z m 49.09537,0 7.18307,14.69697 2.03907,0 -7.18468,-14.69697 -2.03746,0 z m 52.2409,0 -7.18468,14.69697 2.01958,0 7.18469,-14.69697 -2.01959,0 z m 67.55752,0 -7.18468,14.69697 2.01957,0 7.18469,-14.69697 -2.01958,0 z m 33.77876,0 -7.18469,14.69697 2.01958,0 7.18469,-14.69697 -2.01958,0 z m 49.09537,0 7.18308,14.69697 2.03907,0 -7.18469,-14.69697 -2.03746,0 z m 52.24091,0 -7.18469,14.69697 2.01958,0 7.18468,-14.69697 -2.01957,0 z m 49.09538,0 7.18305,14.69697 2.03908,0 -7.18469,-14.69697 -2.03744,0 z m 52.24091,0 -7.1847,14.69697 2.01958,0 7.18469,-14.69697 -2.01957,0 z m 67.55752,0 -7.1847,14.69697 2.01959,0 7.18464,-14.69697 -2.01953,0 z m -458.59988,15.5974 0,1.658 11.25959,0 0.008,0 11.25958,0 0,-1.658 -11.25958,0 -0.008,0 -11.25959,0 z m 90.07669,0 0,1.658 11.26771,0 0,-1.658 -11.26771,0 z m 33.77876,0 0,1.658 11.25959,0 0.008,0 11.25959,0 0,-1.658 -11.25959,0 -0.008,0 -11.25959,0 z m 78.8171,0 0,1.658 11.25959,0 0.008,0 11.25959,0 0,-1.658 -11.25959,0 -0.008,0 -11.25959,0 z m 101.33629,0 0,1.658 11.25958,0 0.008,0 11.25959,0 0,-1.658 -11.25959,0 -0.008,0 -11.25958,0 z m 101.33626,0 0,1.658 11.25959,0 0.008,0 11.25146,0 0.008,0 11.25147,0 0.008,0 11.25959,0 0,-1.658 -11.25959,0 -0.008,0 -11.25147,0 -0.008,0 -11.25146,0 -0.008,0 -11.25959,0 z m -580.672937,6.52336 0,3.00398 -3.025303,-1.5897 -0.695397,1.23108 3.03505,1.51052 -3.03505,1.51984 0.695397,1.23109 3.025303,-1.60677 0,3.00397 1.571142,0 0,-3.00397 3.035053,1.60677 0.693771,-1.23109 -3.015553,-1.51984 3.015553,-1.51052 -0.693771,-1.23108 -3.035053,1.5897 0,-3.00398 -1.571142,0 z m 48.429217,0.23442 -7.184687,14.69698 2.019577,0 7.184687,-14.69698 -2.019577,0 z m 22.519179,0 -7.184696,14.69698 2.019583,0 7.184678,-14.69698 -2.019565,0 z m 22.519171,0 -7.1847,14.69698 2.01959,0 7.18468,-14.69698 -2.01957,0 z m 22.51917,0 -7.18469,14.69698 2.01957,0 7.1847,-14.69698 -2.01958,0 z m 33.77875,0 -7.18468,14.69698 2.01957,0 7.18469,-14.69698 -2.01958,0 z m 22.51918,0 -7.18469,14.69698 2.01957,0 7.18469,-14.69698 -2.01957,0 z m 22.51917,0 -7.18469,14.69698 2.01957,0 7.18469,-14.69698 -2.01957,0 z m 22.51917,0 -7.18469,14.69698 2.01959,0 7.18468,-14.69698 -2.01958,0 z m 56.29793,0 -7.18469,14.69698 2.01958,0 7.1847,-14.69698 -2.01959,0 z m 22.51918,0 -7.18469,14.69698 2.01957,0 7.1847,-14.69698 -2.01958,0 z m 56.29793,0 -7.18469,14.69698 2.01957,0 7.18469,-14.69698 -2.01957,0 z m 22.51917,0 -7.18469,14.69698 2.01957,0 7.18469,-14.69698 -2.01957,0 z m 22.51918,0 -7.1847,14.69698 2.01958,0 7.18469,-14.69698 -2.01957,0 z m 22.51916,0 -7.18468,14.69698 2.01958,0 7.18469,-14.69698 -2.01959,0 z m 33.77876,0 -7.18469,14.69698 2.01958,0 7.1847,-14.69698 -2.01959,0 z m 22.51918,0 -7.18469,14.69698 2.01957,0 7.18469,-14.69698 -2.01957,0 z m 22.51917,0 -7.18469,14.69698 2.01957,0 7.18469,-14.69698 -2.01957,0 z m 22.51917,0 -7.18469,14.69698 2.01958,0 7.18469,-14.69698 -2.01958,0 z m 33.77877,0 -7.1847,14.69698 2.01958,0 7.18469,-14.69698 -2.01957,0 z m 22.51916,0 -7.18469,14.69698 2.01959,0 7.18469,-14.69698 -2.01959,0 z m -503.638205,15.59739 0,1.65801 11.267715,0 0,-1.65801 -11.267715,0 z m -73.991562,6.52336 0,3.00398 -3.025303,-1.5897 -0.695397,1.23109 3.03505,1.51053 -3.03505,1.51983 0.695397,1.23108 3.025303,-1.60677 0,3.00398 1.571142,0 0,-3.00398 3.035053,1.60677 0.693771,-1.23108 -3.015553,-1.51983 3.015553,-1.51053 -0.693771,-1.23109 -3.035053,1.5897 0,-3.00398 -1.571142,0 z m 37.169633,0.23442 -7.184689,14.69698 2.019577,0 7.184688,-14.69698 -2.019576,0 z m 67.557504,0 -7.18468,14.69698 2.01959,0 7.18468,-14.69698 -2.01959,0 z m 33.77877,0 -7.18469,14.69698 2.01957,0 7.1847,-14.69698 -2.01958,0 z m 22.51917,0 -7.18469,14.69698 2.01958,0 7.18469,-14.69698 -2.01958,0 z m 22.51917,0 -7.18469,14.69698 2.01958,0 7.18469,-14.69698 -2.01958,0 z m 22.51918,0 -7.18468,14.69698 2.01956,0 7.18469,-14.69698 -2.01957,0 z m 56.29792,0 -7.18468,14.69698 2.01958,0 7.18469,-14.69698 -2.01959,0 z m 22.51918,0 -7.18469,14.69698 2.01958,0 7.18469,-14.69698 -2.01958,0 z m 56.29793,0 -7.18469,14.69698 2.01958,0 7.18469,-14.69698 -2.01958,0 z m 22.51917,0 -7.18469,14.69698 2.01958,0 7.18469,-14.69698 -2.01958,0 z m 22.51918,0 -7.18469,14.69698 2.01957,0 7.18469,-14.69698 -2.01957,0 z m 22.51918,0 -7.1847,14.69698 2.01958,0 7.18469,-14.69698 -2.01957,0 z m 33.77875,0 -7.18469,14.69698 2.01957,0 7.1847,-14.69698 -2.01958,0 z m 22.51917,0 -7.18469,14.69698 2.01958,0 7.18468,-14.69698 -2.01957,0 z m 22.51917,0 -7.18469,14.69698 2.01958,0 7.18469,-14.69698 -2.01958,0 z m 22.51917,0 -7.18468,14.69698 2.01957,0 7.18469,-14.69698 -2.01958,0 z m 33.77877,0 -7.18469,14.69698 2.01957,0 7.18469,-14.69698 -2.01957,0 z m 22.51918,0 -7.1847,14.69698 2.01958,0 7.18469,-14.69698 -2.01957,0 z m -514.897802,15.59739 0,1.65801 11.25959,0 0.0081,0 11.259584,0 0,-1.65801 -11.259584,0 -0.0081,0 -11.25959,0 z m 112.595862,0 0,1.65801 11.26771,0 0,-1.65801 -11.26771,0 z m 202.67255,0 0,1.65801 11.26771,0 0,-1.65801 -11.26771,0 z m 101.33628,0 0,1.65801 11.26771,0 0,-1.65801 -11.26771,0 z m 101.33627,0 0,1.65801 11.25958,0 0.008,0 11.25146,0 0.008,0 11.25958,0 0,-1.65801 -11.25958,0 -0.008,0 -11.25146,0 -0.008,0 -11.25958,0 z m -569.413357,6.52337 0,3.00398 -3.025303,-1.58971 -0.695397,1.23109 3.03505,1.51053 -3.03505,1.51984 0.695397,1.23108 3.025303,-1.60677 0,3.00398 1.571142,0 0,-3.00398 3.035053,1.60677 0.693771,-1.23108 -3.015553,-1.51984 3.015553,-1.51053 -0.693771,-1.23109 -3.035053,1.58971 0,-3.00398 -1.571142,0 z m 25.910047,0.23441 -7.184689,14.69698 2.019576,0 7.184689,-14.69698 -2.019576,0 z m 22.51917,0 -7.184687,14.69698 2.019577,0 7.184687,-14.69698 -2.019577,0 z m 22.519179,0 -7.184696,14.69698 2.019583,0 7.184678,-14.69698 -2.019565,0 z m 22.519171,0 -7.1847,14.69698 2.01959,0 7.18468,-14.69698 -2.01957,0 z m 37.83577,0 7.18307,14.69698 2.03908,0 -7.1847,-14.69698 -2.03745,0 z m 63.5005,0 -7.18469,14.69698 2.01957,0 7.18469,-14.69698 -2.01957,0 z m 56.29794,0 -7.1847,14.69698 2.01959,0 7.18468,-14.69698 -2.01957,0 z m 22.51916,0 -7.18469,14.69698 2.01958,0 7.1847,-14.69698 -2.01959,0 z m 56.29793,0 -7.18468,14.69698 2.01957,0 7.18469,-14.69698 -2.01958,0 z m 67.55753,0 -7.1847,14.69698 2.01958,0 7.18469,-14.69698 -2.01957,0 z m 37.83577,0 7.18307,14.69698 2.03908,0 -7.1847,-14.69698 -2.03745,0 z m 63.5005,0 -7.18469,14.69698 2.01957,0 7.18469,-14.69698 -2.01957,0 z m 37.83578,0 7.18308,14.69698 2.03906,0 -7.18469,-14.69698 -2.03745,0 z m 63.50049,0 -7.18468,14.69698 2.01957,0 7.1847,-14.69698 -2.01959,0 z m -571.195715,15.5974 0,1.65801 11.26771,0 0,-1.65801 -11.26771,0 z m 45.03834,0 0,1.65801 11.267715,0 0,-1.65801 -11.267715,0 z m 67.557515,0 0,1.65801 11.25959,0 0.008,0 11.25146,0 0.008,0 11.25146,0 0.008,0 11.25958,0 0,-1.65801 -11.25958,0 -0.008,0 -11.25146,0 -0.008,0 -11.25146,0 -0.008,0 -11.25959,0 z m 112.59586,0 0,1.65801 11.26772,0 0,-1.65801 -11.26772,0 z m 78.81711,0 0,1.65801 11.25958,0 0.008,0 11.25145,0 0.008,0 11.25146,0 0.008,0 11.25147,0 0.008,0 11.25958,0 0,-1.65801 -11.25958,0 -0.008,0 -11.25147,0 -0.008,0 -11.25146,0 -0.008,0 -11.25145,0 -0.008,0 -11.25958,0 z m 112.59586,0 0,1.65801 11.25959,0 0.008,0 11.25147,0 0.008,0 11.25146,0 0.008,0 11.25959,0 0,-1.65801 -11.25959,0 -0.008,0 -11.25146,0 -0.008,0 -11.25147,0 -0.008,0 -11.25959,0 z m 101.33628,0 0,1.65801 11.25958,0 0.008,0 11.25147,0 0.008,0 11.25147,0 0.008,0 11.25959,0 0,-1.65801 -11.25959,0 -0.008,0 -11.25147,0 -0.008,0 -11.25147,0 -0.008,0 -11.25958,0 z m -546.894187,6.52336 0,3.00398 -3.025303,-1.5897 -0.695397,1.23108 3.03505,1.51053 -3.03505,1.51984 0.695397,1.23108 3.025303,-1.60677 0,3.00398 1.571142,0 0,-3.00398 3.035053,1.60677 0.693771,-1.23108 -3.015553,-1.51984 3.015553,-1.51053 -0.693771,-1.23108 -3.035053,1.5897 0,-3.00398 -1.571142,0 z m 112.412267,21.08838 0,2.9869 2.6776,0 0,-2.9869 -2.6776,0 z m 168.89378,0 0,2.9869 2.67761,0 0,-2.9869 -2.67761,0 z m -250.781682,0.95165 0,13.58853 2.659731,0 0,-5.59811 c 0,-0.72771 0.136887,-1.29551 0.411064,-1.70303 0.274179,-0.41334 0.654779,-0.61942 1.142207,-0.61942 0.475242,0 0.816441,0.15058 1.023598,0.45331 0.213252,0.30273 0.320079,0.8061 0.320079,1.51053 l 0,5.95672 2.659731,0 0,-6.34949 c 0,-1.21673 -0.24737,-2.13034 -0.74089,-2.74162 -0.49352,-0.61709 -1.224663,-0.92525 -2.193426,-0.92525 -0.645842,0 -1.197042,0.14865 -1.654006,0.44554 -0.456963,0.29692 -0.779478,0.71607 -0.968357,1.25749 l 0,-5.2752 -2.659731,0 z m 325.778982,0 0,1.96539 2.71498,0 0,7.54487 c 0,1.46124 0.2758,2.50564 0.83024,3.13438 0.55445,0.62875 1.46918,0.94389 2.7426,0.94389 l 2.8872,0 0,-1.9654 -2.13818,0 c -0.59711,0 -1.02077,-0.15951 -1.27057,-0.4797 -0.2498,-0.32019 -0.37369,-0.86471 -0.37369,-1.63317 l 0,-9.51026 -5.39258,0 z m -356.303347,0.31514 0,3.00398 -3.025303,-1.5897 -0.695397,1.23109 3.03505,1.51053 -3.03505,1.51983 0.695397,1.23109 3.025303,-1.60678 0,3.00398 1.571142,0 0,-3.00398 3.035053,1.60678 0.693771,-1.23109 -3.015553,-1.51983 3.015553,-1.51053 -0.693771,-1.23109 -3.035053,1.5897 0,-3.00398 -1.571142,0 z m 18.515765,0.23442 0,2.25415 3.463987,0 0,10.78482 2.695477,0 0,-10.78482 3.463987,0 0,-2.25415 -9.623451,0 z m 45.038342,0 0,2.25415 3.463988,0 0,10.78482 2.695483,0 0,-10.78482 3.463982,0 0,-2.25415 -9.623453,0 z m 101.76521,0 0,13.03897 2.88882,0 c 2.22999,0 3.83484,-0.51037 4.81579,-1.52916 0.98095,-1.02461 1.47204,-2.69233 1.47204,-5.00352 0,-2.30538 -0.49109,-3.96417 -1.47204,-4.97713 -0.98095,-1.01879 -2.5858,-1.52916 -4.81579,-1.52916 l -2.88882,0 z m 157.20527,0 0,2.25415 3.46399,0 0,10.78482 2.69548,0 0,-10.78482 3.46398,0 0,-2.25415 -9.62345,0 z m -222.38576,0.48126 0,2.77732 -2.61424,0 0,1.96384 2.61424,0 0,4.50674 c 0,1.26912 0.27011,2.13965 0.81238,2.61121 0.54225,0.46573 1.58251,0.6986 3.11791,0.6986 l 2.24705,0 0,-1.9654 -2.05533,0 c -0.51789,0 -0.89077,-0.0931 -1.1162,-0.27943 -0.21936,-0.19212 -0.32821,-0.50726 -0.32821,-0.94389 l 0,-4.62783 3.49974,0 0,-1.96384 -3.49974,0 0,-2.77732 -2.6776,0 z m 45.03835,0 0,2.77732 -2.61425,0 0,1.96384 2.61425,0 0,4.50674 c 0,1.26912 0.27012,2.13965 0.81237,2.61121 0.54227,0.46573 1.58252,0.6986 3.11791,0.6986 l 2.24705,0 0,-1.9654 -2.05532,0 c -0.51789,0 -0.89078,-0.0931 -1.11621,-0.27943 -0.21934,-0.19212 -0.32821,-0.50726 -0.32821,-0.94389 l 0,-4.62783 3.49974,0 0,-1.96384 -3.49974,0 0,-2.77732 -2.67759,0 z m 101.33627,0 0,2.77732 -2.61424,0 0,1.96384 2.61424,0 0,4.50674 c 0,1.26912 0.27011,2.13965 0.81237,2.61121 0.54226,0.46573 1.58252,0.6986 3.11793,0.6986 l 2.24703,0 0,-1.9654 -2.05532,0 c -0.51788,0 -0.89077,-0.0931 -1.1162,-0.27943 -0.21935,-0.19212 -0.3282,-0.50726 -0.3282,-0.94389 l 0,-4.62783 3.49972,0 0,-1.96384 -3.49972,0 0,-2.77732 -2.67761,0 z m 22.51918,0 0,2.77732 -2.61425,0 0,1.96384 2.61425,0 0,4.50674 c 0,1.26912 0.27011,2.13965 0.81237,2.61121 0.54226,0.46573 1.58251,0.6986 3.11792,0.6986 l 2.24704,0 0,-1.9654 -2.05532,0 c -0.51789,0 -0.89077,-0.0931 -1.11621,-0.27943 -0.21935,-0.19212 -0.3282,-0.50726 -0.3282,-0.94389 l 0,-4.62783 3.49973,0 0,-1.96384 -3.49973,0 0,-2.77732 -2.6776,0 z m -101.0162,1.84275 0.73114,0 c 1.06015,0 1.81566,0.31709 2.26653,0.95165 0.45088,0.63456 0.6759,1.71118 0.6759,3.23063 0,1.5311 -0.22502,2.61664 -0.6759,3.25703 -0.45087,0.63456 -1.20638,0.95164 -2.26653,0.95164 l -0.73114,0 0,-8.39095 z m 25.1594,0.67997 c -1.57804,0 -2.81368,0.45836 -3.70933,1.37236 -0.89564,0.90818 -1.34367,2.16759 -1.34367,3.7802 0,1.60678 0.44437,2.86426 1.33393,3.77244 0.88955,0.90817 2.12315,1.36304 3.70119,1.36304 0.59711,0 1.15399,-0.0645 1.67188,-0.19251 0.5179,-0.12225 1.00329,-0.30854 1.45417,-0.55888 l 0,-2.34884 c -0.40213,0.33765 -0.82944,0.59031 -1.28032,0.75914 -0.45087,0.16301 -0.93463,0.24529 -1.45253,0.24529 -0.87128,0 -1.54229,-0.26314 -2.01145,-0.78709 -0.46915,-0.52395 -0.70352,-1.27455 -0.70352,-2.25259 0,-0.97805 0.23437,-1.73214 0.70352,-2.26191 0.46916,-0.52978 1.14017,-0.79485 2.01145,-0.79485 0.49962,0 0.98135,0.0877 1.44442,0.26236 0.46914,0.16883 0.89848,0.41411 1.28843,0.7343 l 0,-2.34108 c -0.50571,-0.25615 -1.01548,-0.44438 -1.52728,-0.56664 -0.50571,-0.12226 -1.03254,-0.18474 -1.58089,-0.18474 z m -147.251989,0.0186 c -1.504933,0 -2.69182,0.46224 -3.563097,1.38789 -0.871278,0.92564 -1.307932,2.18661 -1.307932,3.78174 0,1.64754 0.451683,2.91044 1.353425,3.78952 0.907834,0.87324 2.216578,1.31026 3.928666,1.31026 0.718958,0 1.401358,-0.061 2.047201,-0.18319 0.645844,-0.12226 1.279497,-0.30661 1.900966,-0.55112 l 0,-2.34885 c -0.651932,0.36677 -1.276245,0.63535 -1.873347,0.80417 -0.597096,0.16883 -1.202725,0.25305 -1.818106,0.25305 -0.932205,0 -1.633288,-0.18979 -2.102438,-0.56819 -0.46915,-0.37841 -0.707177,-0.95165 -0.71327,-1.72011 l 6.937723,0 0,-1.03859 c 0,-1.5602 -0.419997,-2.76916 -1.260811,-3.62495 -0.834719,-0.8616 -2.011857,-1.29163 -3.52898,-1.29163 z m 33.678015,0 c -0.682395,0 -1.327425,0.0555 -1.936711,0.16611 -0.609279,0.11061 -1.209219,0.281 -1.800226,0.51387 l 0,2.18427 c 0.651931,-0.33765 1.276251,-0.58294 1.873341,-0.7343 0.603197,-0.15718 1.223847,-0.23597 1.863596,-0.23597 0.609298,0 1.070322,0.1075 1.381054,0.32291 0.316826,0.20958 0.474427,0.52123 0.474427,0.93457 l 0,0.42847 -1.855481,0 c -1.620697,0 -2.81692,0.27401 -3.590714,0.82125 -0.773794,0.54141 -1.161704,1.38167 -1.161704,2.52271 0,1.05373 0.324141,1.87575 0.96999,2.46373 0.651932,0.58799 1.559359,0.88179 2.723095,0.88179 0.609285,0 1.166167,-0.11644 1.671875,-0.3493 0.505703,-0.23287 0.920018,-0.56587 1.242939,-0.99667 l 0,1.09292 2.659733,0 0,-5.58102 c 0,-1.665 -0.33754,-2.82041 -1.01385,-3.46661 -0.670223,-0.64621 -1.838009,-0.96873 -3.501364,-0.96873 z m 11.296964,0 c -1.29168,0 -2.29457,0.26159 -3.00743,0.78554 -0.71287,0.52395 -1.06909,1.2567 -1.06909,2.19981 0,0.79174 0.23437,1.42398 0.70351,1.89553 0.46916,0.47155 1.21532,0.81736 2.23893,1.03858 l 0.7409,0.15835 c 0.85908,0.19793 1.40094,0.38423 1.62636,0.55888 0.23153,0.17465 0.34771,0.42382 0.34771,0.74984 0,0.33183 -0.16125,0.58604 -0.48418,0.76069 -0.32292,0.17465 -0.79897,0.26235 -1.42654,0.26237 -0.57273,0 -1.16536,-0.0858 -1.78074,-0.25461 -0.60928,-0.16883 -1.21084,-0.41256 -1.80185,-0.73275 l 0,2.23552 c 0.66412,0.20376 1.32012,0.35434 1.96595,0.45331 0.64585,0.10479 1.27585,0.15835 1.89123,0.15835 1.38917,0 2.42779,-0.25072 3.11629,-0.75138 0.69458,-0.50649 1.04309,-1.26408 1.04309,-2.27123 0,-0.83831 -0.22869,-1.50121 -0.68565,-1.99023 -0.45086,-0.49484 -1.16495,-0.85306 -2.13981,-1.07428 l -0.76688,-0.17388 -0.10074,-0.0264 c -1.30386,-0.29108 -1.95621,-0.67065 -1.95621,-1.13638 0,-0.32602 0.15354,-0.56975 0.45819,-0.73276 0.30463,-0.16882 0.7547,-0.25305 1.35179,-0.25305 0.53617,0 1.06869,0.0788 1.59877,0.23598 0.53617,0.15136 1.05163,0.37723 1.54515,0.67996 l 0,-2.23551 c -0.54227,-0.18048 -1.10281,-0.31321 -1.68164,-0.40053 -0.57272,-0.0932 -1.14829,-0.13972 -1.72711,-0.13972 z m 33.84212,0 c -1.50494,0 -2.69182,0.46224 -3.5631,1.38789 -0.87127,0.92564 -1.30793,2.18661 -1.30793,3.78174 0,1.64754 0.45169,2.91044 1.35343,3.78952 0.90783,0.87324 2.21657,1.31026 3.92866,1.31026 0.71896,0 1.40136,-0.061 2.0472,-0.18319 0.64585,-0.12226 1.2795,-0.30661 1.90097,-0.55112 l 0,-2.34885 c -0.65193,0.36677 -1.27624,0.63535 -1.87335,0.80417 -0.59709,0.16883 -1.20273,0.25305 -1.8181,0.25305 -0.93221,0 -1.63329,-0.18979 -2.10244,-0.56819 -0.46914,-0.37841 -0.70717,-0.95165 -0.71327,-1.72011 l 6.93773,0 0,-1.03859 c 0,-1.5602 -0.42001,-2.76916 -1.26082,-3.62495 -0.83472,-0.8616 -2.01186,-1.29163 -3.52898,-1.29163 z m 11.19623,0 c -1.2917,0 -2.29457,0.26159 -3.00744,0.78554 -0.71287,0.52395 -1.06909,1.2567 -1.06909,2.19981 0,0.79174 0.23438,1.42398 0.70352,1.89553 0.46914,0.47155 1.21532,0.81736 2.23892,1.03858 l 0.74089,0.15835 c 0.8591,0.19793 1.40094,0.38423 1.62638,0.55888 0.23153,0.17465 0.34771,0.42382 0.34771,0.74984 0,0.33183 -0.16126,0.58604 -0.48418,0.76069 -0.32293,0.17465 -0.79898,0.26235 -1.42654,0.26237 -0.57273,0 -1.16536,-0.0858 -1.78074,-0.25461 -0.60928,-0.16883 -1.21085,-0.41256 -1.80186,-0.73275 l 0,2.23552 c 0.66412,0.20376 1.32012,0.35434 1.96596,0.45331 0.64584,0.10479 1.27584,0.15835 1.89122,0.15835 1.38917,0 2.4278,-0.25072 3.11628,-0.75138 0.6946,-0.50649 1.04311,-1.26408 1.04311,-2.27123 0,-0.83831 -0.22869,-1.50121 -0.68565,-1.99023 -0.45087,-0.49484 -1.16496,-0.85306 -2.13981,-1.07428 l -0.76689,-0.17388 -0.10073,-0.0264 c -1.30387,-0.29108 -1.95621,-0.67065 -1.95621,-1.13638 0,-0.32602 0.15354,-0.56975 0.45818,-0.73276 0.30465,-0.16882 0.75469,-0.25305 1.3518,-0.25305 0.53617,0 1.06868,0.0788 1.59876,0.23598 0.53617,0.15136 1.05163,0.37723 1.54515,0.67996 l 0,-2.23551 c -0.54226,-0.18048 -1.1028,-0.31321 -1.68162,-0.40053 -0.57273,-0.0932 -1.1483,-0.13972 -1.72712,-0.13972 z m 45.02046,0 c -1.444,0 -2.59676,0.46224 -3.45586,1.38789 -0.853,0.91982 -1.27869,2.16837 -1.27869,3.74604 0,1.57767 0.42569,2.82972 1.27869,3.75535 0.8591,0.91983 2.01186,1.38013 3.45586,1.38013 1.4501,0 2.60124,-0.4603 3.45425,-1.38013 0.85909,-0.92563 1.28843,-2.17768 1.28843,-3.75535 0,-1.57767 -0.42934,-2.82622 -1.28843,-3.74604 -0.85301,-0.92565 -2.00415,-1.38789 -3.45425,-1.38789 z m 32.69992,0 c -0.41431,0 -0.78922,0.11294 -1.12433,0.33998 -0.33511,0.22123 -0.57882,0.52396 -0.73115,0.90818 l 0,-1.01219 -1.94645,0 0,9.78039 2.19342,0 0,-6.27963 c 0,-0.72771 0.0581,-1.21323 0.17385,-1.45775 0.11577,-0.2445 0.32574,-0.36637 0.63041,-0.36637 0.30465,0 0.5183,0.12381 0.64016,0.37414 0.12185,0.25033 0.18197,0.73392 0.18197,1.44998 l 0,6.27963 2.1658,0 0,-6.27963 c 0,-0.71606 0.0617,-1.19965 0.1836,-1.44998 0.12185,-0.25033 0.33552,-0.37414 0.64016,-0.37414 0.30463,0 0.51464,0.12187 0.63041,0.36637 0.11576,0.24452 0.17384,0.73004 0.17384,1.45775 l 0,6.27963 2.19342,0 0,-5.51117 c 0,-1.83965 -0.1706,-3.05054 -0.5118,-3.63272 -0.33509,-0.58217 -0.94439,-0.87247 -1.82785,-0.87247 -0.45087,0 -0.8331,0.0986 -1.14383,0.29651 -0.31074,0.19795 -0.56582,0.50416 -0.76688,0.9175 -0.0731,-0.33765 -0.28108,-0.62408 -0.62229,-0.85695 -0.3412,-0.23869 -0.71814,-0.35706 -1.13246,-0.35706 z m 12.41967,0 c -1.50493,0 -2.69182,0.46224 -3.56309,1.38789 -0.87129,0.92564 -1.30794,2.18661 -1.30794,3.78174 0,1.64754 0.45168,2.91044 1.35342,3.78952 0.90784,0.87324 2.21657,1.31026 3.92867,1.31026 0.71896,0 1.40136,-0.061 2.04721,-0.18319 0.64583,-0.12226 1.27948,-0.30661 1.90095,-0.55112 l 0,-2.34885 c -0.65193,0.36677 -1.27625,0.63535 -1.87333,0.80417 -0.59711,0.16883 -1.20274,0.25305 -1.81812,0.25305 -0.9322,0 -1.63328,-0.18979 -2.10243,-0.56819 -0.46915,-0.37841 -0.70719,-0.95165 -0.71327,-1.72011 l 6.93772,0 0,-1.03859 c 0,-1.5602 -0.42,-2.76916 -1.26081,-3.62495 -0.83472,-0.8616 -2.01186,-1.29163 -3.52898,-1.29163 z m 12.40178,0 c -0.64583,0 -1.19703,0.14865 -1.654,0.44555 -0.45696,0.29691 -0.77948,0.71606 -0.96836,1.25748 l 0,-1.46706 -2.65972,0 0,9.78039 2.65972,0 0,-5.59811 c 0,-0.73352 0.1369,-1.30676 0.41107,-1.7201 0.28027,-0.41334 0.66087,-0.62098 1.14222,-0.62098 0.47524,0 0.81641,0.15563 1.02359,0.46418 0.21324,0.30272 0.32007,0.80804 0.32007,1.51829 l 0,5.95672 2.65974,0 0,-6.34949 c 0,-1.21672 -0.24738,-2.13034 -0.74089,-2.74161 -0.49352,-0.6171 -1.22467,-0.92526 -2.19344,-0.92526 z m 21.27624,0 c -0.6824,0 -1.32743,0.0555 -1.93671,0.16611 -0.60929,0.11061 -1.20922,0.281 -1.80023,0.51387 l 0,2.18427 c 0.65193,-0.33765 1.27625,-0.58294 1.87334,-0.7343 0.60319,-0.15718 1.22385,-0.23597 1.8636,-0.23597 0.60929,0 1.07031,0.1075 1.38105,0.32291 0.31682,0.20958 0.47443,0.52123 0.47443,0.93457 l 0,0.42847 -1.85548,0 c -1.6207,0 -2.81693,0.27401 -3.59072,0.82125 -0.77379,0.54141 -1.1617,1.38167 -1.1617,2.52271 0,1.05373 0.32414,1.87575 0.96998,2.46373 0.65194,0.58799 1.55936,0.88179 2.72311,0.88179 0.60927,0 1.16616,-0.11644 1.67186,-0.3493 0.50571,-0.23287 0.92002,-0.56587 1.24295,-0.99667 l 0,1.09292 2.65973,0 0,-5.58102 c 0,-1.665 -0.33754,-2.82041 -1.01385,-3.46661 -0.67022,-0.64621 -1.83801,-0.96873 -3.50136,-0.96873 z m 33.79826,0 c -1.44401,0 -2.59677,0.46224 -3.45587,1.38789 -0.853,0.91982 -1.27869,2.16837 -1.27869,3.74604 0,1.57767 0.42569,2.82972 1.27869,3.75535 0.8591,0.91983 2.01186,1.38013 3.45587,1.38013 1.4501,0 2.60124,-0.4603 3.45423,-1.38013 0.8591,-0.92563 1.28844,-2.17768 1.28844,-3.75535 0,-1.57767 -0.42934,-2.82622 -1.28844,-3.74604 -0.85299,-0.92565 -2.00413,-1.38789 -3.45423,-1.38789 z m 12.48303,0 c -0.64585,0 -1.19704,0.14865 -1.654,0.44555 -0.45698,0.29691 -0.77948,0.71606 -0.96836,1.25748 l 0,-1.46706 -2.65974,0 0,9.78039 2.65974,0 0,-5.59811 c 0,-0.73352 0.13688,-1.30676 0.41107,-1.7201 0.28026,-0.41334 0.66086,-0.62098 1.14219,-0.62098 0.47525,0 0.81645,0.15563 1.02361,0.46418 0.21325,0.30272 0.32008,0.80804 0.32008,1.51829 l 0,5.95672 2.65973,0 0,-6.34949 c 0,-1.21672 -0.24738,-2.13034 -0.74089,-2.74161 -0.49353,-0.6171 -1.22467,-0.92526 -2.19343,-0.92526 z m 32.55531,0 c -1.444,0 -2.59678,0.46224 -3.45586,1.38789 -0.853,0.91982 -1.27869,2.16837 -1.27869,3.74604 0,1.57767 0.42569,2.82972 1.27869,3.75535 0.85908,0.91983 2.01186,1.38013 3.45586,1.38013 1.4501,0 2.60124,-0.4603 3.45425,-1.38013 0.85908,-0.92563 1.28843,-2.17768 1.28843,-3.75535 0,-1.57767 -0.42935,-2.82622 -1.28843,-3.74604 -0.85301,-0.92565 -2.00415,-1.38789 -3.45425,-1.38789 z m 11.25959,0 c -1.44401,0 -2.59676,0.46224 -3.45587,1.38789 -0.853,0.91982 -1.27868,2.16837 -1.27868,3.74604 0,1.57767 0.42568,2.82972 1.27868,3.75535 0.8591,0.91983 2.01186,1.38013 3.45587,1.38013 1.4501,0 2.60124,-0.4603 3.45424,-1.38013 0.85909,-0.92563 1.28843,-2.17768 1.28843,-3.75535 0,-1.57767 -0.42934,-2.82622 -1.28843,-3.74604 -0.853,-0.92565 -2.00414,-1.38789 -3.45424,-1.38789 z m -240.06153,0.23597 0,1.96385 2.62237,0 0,5.85115 -3.33563,0 0,1.96539 9.34073,0 0,-1.96539 -3.3275,0 0,-7.815 -5.29997,0 z m 89.51939,0 0,6.36501 c 0,1.21091 0.24576,2.12453 0.73927,2.74162 0.49961,0.61709 1.23807,0.92681 2.21292,0.92681 0.63976,0 1.18364,-0.14864 1.63452,-0.44555 0.45696,-0.29691 0.7811,-0.71607 0.96998,-1.25748 l 0,1.44998 2.6776,0 0,-9.78039 -2.6776,0 0,5.61363 c 0,0.73353 -0.13689,1.30483 -0.41107,1.71235 -0.26808,0.40751 -0.643,0.61166 -1.12433,0.61166 -0.48133,0 -0.82619,-0.15214 -1.03334,-0.45487 -0.20716,-0.30272 -0.31035,-0.8061 -0.31033,-1.51052 l 0,-5.97225 -2.67762,0 z m 79.3744,0 0,1.96385 2.62236,0 0,5.85115 -3.33563,0 0,1.96539 9.34074,0 0,-1.96539 -3.3275,0 0,-7.815 -5.29997,0 z m -232.759849,1.7465 c 0.682398,0 1.197852,0.17388 1.545148,0.52317 0.353384,0.34348 0.535358,0.85229 0.547542,1.52761 l -4.213001,0.009 c 0.06702,-0.65784 0.284333,-1.16472 0.649904,-1.51984 0.365571,-0.36095 0.85503,-0.54024 1.470407,-0.54024 z m 78.817099,0 c 0.6824,0 1.19786,0.17388 1.54515,0.52317 0.35338,0.34348 0.53536,0.85229 0.54755,1.52761 l -4.21301,0.009 c 0.067,-0.65784 0.28433,-1.16472 0.64991,-1.51984 0.36557,-0.36095 0.85503,-0.54024 1.4704,-0.54024 z m 101.33628,0 c 0.6824,0 1.19785,0.17388 1.54515,0.52317 0.35339,0.34348 0.53536,0.85229 0.54754,1.52761 l -4.213,0.009 c 0.067,-0.65784 0.28433,-1.16472 0.6499,-1.51984 0.36557,-0.36095 0.85502,-0.54024 1.47041,-0.54024 z m -45.11959,0.0947 c 0.64585,0 1.15033,0.27206 1.5159,0.81348 0.36558,0.53559 0.54918,1.28271 0.54918,2.24328 0,0.96058 -0.1836,1.71118 -0.54918,2.2526 -0.36557,0.53558 -0.87005,0.80416 -1.5159,0.80416 -0.63974,0 -1.1422,-0.26858 -1.50777,-0.80416 -0.36557,-0.54142 -0.54917,-1.29202 -0.54917,-2.2526 0,-0.96057 0.1836,-1.70769 0.54917,-2.24328 0.36557,-0.54142 0.86803,-0.81348 1.50777,-0.81348 z m 112.59587,0 c 0.64584,0 1.15033,0.27206 1.51591,0.81348 0.36556,0.53559 0.54916,1.28271 0.54916,2.24328 0,0.96058 -0.1836,1.71118 -0.54916,2.2526 -0.36558,0.53558 -0.87007,0.80416 -1.51591,0.80416 -0.63975,0 -1.14221,-0.26858 -1.50778,-0.80416 -0.36557,-0.54142 -0.54917,-1.29202 -0.54917,-2.2526 0,-0.96057 0.1836,-1.70769 0.54917,-2.24328 0.36557,-0.54142 0.86803,-0.81348 1.50778,-0.81348 z m 45.03834,0 c 0.64584,0 1.15033,0.27206 1.5159,0.81348 0.36557,0.53559 0.54918,1.28271 0.54918,2.24328 0,0.96058 -0.18361,1.71118 -0.54918,2.2526 -0.36557,0.53558 -0.87006,0.80416 -1.5159,0.80416 -0.63974,0 -1.1422,-0.26858 -1.50777,-0.80416 -0.36557,-0.54142 -0.54917,-1.29202 -0.54917,-2.2526 0,-0.96057 0.1836,-1.70769 0.54917,-2.24328 0.36557,-0.54142 0.86803,-0.81348 1.50777,-0.81348 z m 11.25959,0 c 0.64585,0 1.15032,0.27206 1.5159,0.81348 0.36557,0.53559 0.54917,1.28271 0.54917,2.24328 0,0.96058 -0.1836,1.71118 -0.54917,2.2526 -0.36558,0.53558 -0.87005,0.80416 -1.5159,0.80416 -0.63974,0 -1.1422,-0.26858 -1.50778,-0.80416 -0.36556,-0.54142 -0.54916,-1.29202 -0.54916,-2.2526 0,-0.96057 0.1836,-1.70769 0.54916,-2.24328 0.36558,-0.54142 0.86804,-0.81348 1.50778,-0.81348 z m -269.463184,3.34551 1.069091,0 0,0.17387 c 0,0.914 -0.194971,1.62697 -0.584912,2.13927 -0.389948,0.50649 -0.93749,0.7607 -1.644257,0.7607 -0.469145,0 -0.840414,-0.1308 -1.114588,-0.39277 -0.274175,-0.26197 -0.41269,-0.61477 -0.41269,-1.05721 0,-0.59381 0.198628,-1.01297 0.594664,-1.25748 0.396036,-0.24451 1.093471,-0.36638 2.092692,-0.36638 z m 180.153384,0 1.06909,0 0,0.17387 c 0,0.914 -0.19497,1.62697 -0.58491,2.13927 -0.38995,0.50649 -0.9375,0.7607 -1.64426,0.7607 -0.46915,0 -0.84041,-0.1308 -1.11459,-0.39277 -0.27418,-0.26197 -0.41269,-0.61477 -0.41269,-1.05721 0,-0.59381 0.19863,-1.01297 0.59467,-1.25748 0.39603,-0.24451 1.09346,-0.36638 2.09269,-0.36638 z m 110.3017,1.38789 0,3.20579 3.04318,0 0,-3.20579 -3.04318,0 z m -370.843327,12.28758 0,3.00398 -3.025303,-1.5897 -0.695397,1.23109 3.03505,1.51052 -3.03505,1.51985 0.695397,1.23108 3.025303,-1.60678 0,3.00398 1.571142,0 0,-3.00398 3.035053,1.60678 0.693771,-1.23108 -3.015553,-1.51985 3.015553,-1.51052 -0.693771,-1.23109 -3.035053,1.5897 0,-3.00398 -1.571142,0 z m 14.650459,0.23442 -7.184686,14.69697 2.019575,0 7.184689,-14.69697 -2.019578,0 z"
       id="text3336"
       clip-path="none"
       inkscape:connector-curvature="0" />
  </g>
</svg>
